<svg xmlns="http://www.w3.org/2000/svg" viewBox="0 0 400 400" width="100%" height="100%">
    <rect width="400" height="400" fill="#0f172a" rx="16"/>
    <defs>
      <linearGradient id="bladeGrad" x1="0%" y1="0%" x2="100%" y2="100%">
        <stop offset="0%" stop-color="#fde68a"/>
        <stop offset="50%" stop-color="#d97706"/>
        <stop offset="100%" stop-color="#b45309"/>
      </linearGradient>
      <linearGradient id="gripGrad" x1="0%" y1="0%" x2="100%" y2="0%">
        <stop offset="0%" stop-color="#dc2626"/>
        <stop offset="100%" stop-color="#991b1b"/>
      </linearGradient>
    </defs>
    <ellipse cx="200" cy="360" rx="90" ry="14" fill="#000000" opacity="0.6"/>
    <rect x="193" y="40" width="14" height="95" rx="7" fill="url(#gripGrad)"/>
    <line x1="193" y1="55" x2="207" y2="55" stroke="#7f1d1d" stroke-width="1.5"/>
    <line x1="193" y1="70" x2="207" y2="70" stroke="#7f1d1d" stroke-width="1.5"/>
    <line x1="193" y1="85" x2="207" y2="85" stroke="#7f1d1d" stroke-width="1.5"/>
    <line x1="193" y1="100" x2="207" y2="100" stroke="#7f1d1d" stroke-width="1.5"/>
    <line x1="193" y1="115" x2="207" y2="115" stroke="#7f1d1d" stroke-width="1.5"/>
    <rect x="191" y="36" width="18" height="8" rx="4" fill="#450a0a"/>
    <path d="M 191 130 Q 180 145 178 190 L 176 320 Q 176 345 200 345 Q 224 345 224 320 L 222 190 Q 220 145 209 130 Z" fill="url(#bladeGrad)"/>
    <path d="M 185 160 L 183 330" stroke="#92400e" stroke-width="1" opacity="0.5"/>
    <path d="M 192 145 L 190 338" stroke="#92400e" stroke-width="1.2" opacity="0.5"/>
    <path d="M 200 140 L 200 342" stroke="#78350f" stroke-width="1.5" opacity="0.6"/>
    <path d="M 208 145 L 210 338" stroke="#92400e" stroke-width="1.2" opacity="0.5"/>
    <path d="M 215 160 L 217 330" stroke="#92400e" stroke-width="1" opacity="0.5"/>
    <rect x="184" y="180" width="32" height="55" rx="4" fill="#1e3a8a" stroke="#fbbf24" stroke-width="1.5"/>
    <text x="200" y="205" font-family="Arial, sans-serif" font-size="10" font-weight="bold" fill="#ffffff" text-anchor="middle">CRIC</text>
    <text x="200" y="222" font-family="Arial, sans-serif" font-size="8" font-weight="bold" fill="#fbbf24" text-anchor="middle">SG PRO</text>
  </svg>